<?xml version="1.0" standalone="no"?>
<!DOCTYPE svg PUBLIC "-//W3C//DTD SVG 20010904//EN"
 "http://www.w3.org/TR/2001/REC-SVG-20010904/DTD/svg10.dtd">
<svg version="1.0" xmlns="http://www.w3.org/2000/svg"
 width="133.000000pt" height="133.000000pt" viewBox="0 0 133.000000 133.000000"
 preserveAspectRatio="xMidYMid meet">
<metadata>
Created by potrace 1.14, written by Peter Selinger 2001-2017
</metadata>
<g transform="translate(0.000000,133.000000) scale(0.100000,-0.100000)"
fill="#000000" stroke="none">
<path d="M909 926 c-5 -5 -264 -28 -298 -27 -14 1 -28 6 -32 12 -5 8 -30 10
-80 5 -92 -9 -109 -14 -109 -32 0 -8 -7 -14 -15 -14 -8 0 -15 -4 -15 -10 0 -5
-12 -13 -27 -16 -29 -8 -65 -43 -56 -56 8 -14 33 -8 33 7 0 8 7 15 15 15 8 0
15 6 15 14 0 8 10 18 22 22 13 4 27 13 33 20 13 18 195 32 195 15 0 -6 -4 -11
-10 -11 -5 0 -10 -7 -10 -15 0 -9 -7 -18 -15 -21 -8 -4 -15 -16 -15 -29 0 -13
-7 -25 -15 -29 -9 -3 -15 -18 -15 -36 0 -16 -4 -30 -9 -30 -4 0 -7 -15 -6 -32
1 -18 2 -52 3 -75 1 -23 8 -48 15 -55 8 -7 20 -30 26 -51 7 -20 17 -37 22 -37
5 0 9 -7 9 -15 0 -8 7 -15 15 -15 8 0 15 -7 15 -15 0 -8 7 -15 15 -15 8 0 15
-4 15 -10 0 -13 -85 -28 -172 -29 -37 -1 -48 -5 -48 -17 0 -14 9 -15 68 -10
157 16 158 16 207 64 16 15 35 16 35 2 0 -5 9 -10 19 -10 11 0 26 -6 33 -13
19 -19 139 -7 162 16 10 9 26 17 37 17 10 0 19 7 19 15 0 9 9 15 25 15 14 0
25 5 25 10 0 6 11 21 25 34 14 13 25 31 25 40 0 9 5 16 11 16 8 0 9 32 4 108
-6 86 -11 111 -26 125 -11 10 -19 25 -19 34 0 21 -29 42 -57 43 -25 0 -31 15
-10 23 7 4 6 6 -4 6 -9 1 -20 8 -23 17 -3 8 -10 12 -16 9 -5 -3 -10 1 -10 9 0
15 -21 22 -31 12z"/>
<path d="M250 761 c0 -12 -4 -21 -10 -21 -11 0 -13 -39 -4 -64 12 -31 24 -16
24 29 0 34 4 45 16 45 20 0 13 24 -9 28 -12 2 -17 -3 -17 -17z"/>
<path d="M250 510 c0 -20 5 -30 15 -30 16 0 19 17 9 44 -10 26 -24 18 -24 -14z"/>
<path d="M280 456 c0 -10 68 -76 78 -76 5 0 12 -7 16 -15 6 -16 36 -9 36 9 0
6 -15 17 -32 25 -18 8 -43 25 -55 38 -19 20 -43 31 -43 19z"/>
</g>
</svg>
